PathFileType	4	(X/Y/Z)	 Jog05.trc
DataRate	CameraRate	NumFrames	NumMarkers	Units	OrigDataRate	OrigDataStartFrame	OrigNumFrames
250	250	9	31	m	250	570	651
Frame#	Time	RASI			LASI			RAIC			LAIC			RTH2			RTB3			RMT1			RMT5			LTH1			LTH2			LTH3			LCAL			LMT1			LMT5			CLAV			STRN			RACR			LACR			RTH1			RTH3			LTB1			LTB2			C7			LPSI			T10			RPSI			LTB3			RTB1			RCAL			RTB2			C_30			
		X1	Y1	Z1	X2	Y2	Z2	X3	Y3	Z3	X4	Y4	Z4	X5	Y5	Z5	X6	Y6	Z6	X7	Y7	Z7	X8	Y8	Z8	X9	Y9	Z9	X10	Y10	Z10	X11	Y11	Z11	X12	Y12	Z12	X13	Y13	Z13	X14	Y14	Z14	X15	Y15	Z15	X16	Y16	Z16	X17	Y17	Z17	X18	Y18	Z18	X19	Y19	Z19	X20	Y20	Z20	X21	Y21	Z21	X22	Y22	Z22	X23	Y23	Z23	X24	Y24	Z24	X25	Y25	Z25	X26	Y26	Z26	X27	Y27	Z27	X28	Y28	Z28	X29	Y29	Z29	X30	Y30	Z30	X31	Y31	Z31	
570	2.2800	4.655898	0.981004	0.394974	4.643023	0.996130	0.172099	4.614640	1.090682	0.434429	4.585702	1.097633	0.139426	4.557278	0.761670	0.423120	4.140605	0.436768	0.352564	3.954472	0.310944	0.339760	3.935549	0.307296	0.431894	4.608144	0.874057	0.105268	4.679185	0.802662	0.129987	4.657821	0.701127	0.116747	4.810538	0.065903	0.254186	4.990815	0.191395	0.264418	4.983855	0.171388	0.176029	4.654095	1.459412	0.268082	4.705836	1.245616	0.252387	4.641413	1.501989	0.449652	4.559820	1.498385	0.118590	4.543122	0.857235	0.462750	4.480100	0.695768	0.426535	4.792828	0.436810	0.238852	4.816142	0.367230	0.190080	4.544900	1.535424	0.291371	4.479742	1.082526	0.263611	4.490086	1.250163	0.318964	4.487148	1.077378	0.336273	4.824760	0.303820	0.247266	4.276067	0.477942	0.330894	3.955690	0.518157	0.380520	4.224923	0.443959	0.389980	4.391792	0.534246	0.267424	
571	2.2840	4.670844	0.979102	0.395099	4.657774	0.993498	0.172155	4.628469	1.088315	0.434798	4.600671	1.095240	0.139494	4.574569	0.758658	0.422974	4.159612	0.437460	0.353915	3.969549	0.319166	0.342965	3.950254	0.317400	0.435053	4.623278	0.872885	0.106018	4.695190	0.802165	0.129931	4.674058	0.700334	0.117170	4.820802	0.062265	0.254039	5.001638	0.187159	0.265602	4.995120	0.167180	0.177104	4.669707	1.456596	0.267542	4.720745	1.242386	0.252483	4.656809	1.499656	0.448692	4.576427	1.495442	0.117470	4.559918	0.854003	0.462631	4.498102	0.692032	0.426603	4.806796	0.433596	0.239256	4.829729	0.363852	0.190557	4.560750	1.533248	0.290169	4.494057	1.079424	0.263407	4.504638	1.248081	0.318014	4.501469	1.074143	0.336139	4.837290	0.300268	0.247682	4.294957	0.478679	0.332614	3.976772	0.526899	0.381229	4.243619	0.444900	0.391598	4.413022	0.529039	0.268112	
572	2.2880	4.685814	0.977046	0.395148	4.672354	0.990911	0.172089	4.642402	1.085708	0.435137	4.615452	1.092641	0.139526	4.591896	0.755527	0.423018	4.179333	0.438313	0.355384	3.985593	0.327184	0.346199	3.965605	0.327354	0.438142	4.638443	0.871864	0.106906	4.711214	0.801926	0.129999	4.690711	0.699825	0.117523	4.830086	0.058610	0.253690	5.011581	0.181987	0.266832	5.005534	0.162276	0.178277	4.685255	1.453599	0.267042	4.735915	1.239398	0.252681	4.672043	1.497156	0.447735	4.593075	1.492319	0.116321	4.576520	0.850676	0.462579	4.516075	0.688126	0.426827	4.820803	0.430093	0.239649	4.843116	0.360106	0.190918	4.576643	1.530733	0.288883	4.508361	1.076104	0.263486	4.519284	1.246228	0.317367	4.515700	1.070673	0.336143	4.849356	0.296319	0.247956	4.314560	0.479578	0.334451	3.998344	0.535308	0.381709	4.263028	0.446002	0.393333	4.434435	0.523881	0.268924	
573	2.2920	4.700730	0.974812	0.395132	4.686839	0.988433	0.171935	4.656417	1.082897	0.435440	4.629985	1.089901	0.139517	4.609300	0.752260	0.423202	4.198186	0.438260	0.356803	4.002004	0.335319	0.349087	3.981796	0.337185	0.441172	4.653675	0.870940	0.107847	4.727275	0.801782	0.130305	4.707547	0.699395	0.117761	4.838171	0.054316	0.252995	5.020781	0.176100	0.268077	5.015162	0.156685	0.179329	4.700845	1.450410	0.266577	4.750555	1.235575	0.252751	4.687167	1.494465	0.446838	4.609870	1.489064	0.115230	4.592964	0.847225	0.462542	4.534004	0.684077	0.427111	4.834752	0.426294	0.239976	4.856177	0.356063	0.191227	4.592515	1.528270	0.287711	4.522640	1.072700	0.263368	4.534020	1.243849	0.316359	4.530051	1.067260	0.336092	4.860997	0.292022	0.248156	4.333294	0.479570	0.336240	4.020258	0.543403	0.381955	4.281569	0.446199	0.395019	4.455557	0.518382	0.269846	
574	2.2960	4.715661	0.972437	0.395064	4.701275	0.986136	0.171700	4.670388	1.079862	0.435633	4.644342	1.086984	0.139484	4.626663	0.748917	0.423538	4.219123	0.439170	0.358447	4.019451	0.342941	0.352180	3.998871	0.346797	0.444121	4.668931	0.869933	0.108836	4.743391	0.801644	0.130828	4.724589	0.698997	0.117939	4.845090	0.050438	0.252705	5.029061	0.169582	0.269108	5.023904	0.150496	0.180361	4.716411	1.447058	0.266110	4.765257	1.231876	0.252918	4.702215	1.491586	0.445969	4.626456	1.485598	0.114084	4.609365	0.843713	0.462507	4.552110	0.679938	0.427431	4.848650	0.422259	0.240225	4.868907	0.351693	0.191435	4.608168	1.525102	0.286540	4.536871	1.068914	0.263411	4.548559	1.241618	0.315496	4.544250	1.063313	0.336182	4.872228	0.287467	0.248259	4.354114	0.480526	0.338252	4.042464	0.550945	0.381945	4.302194	0.447358	0.396929	4.476800	0.512711	0.270734	
575	2.3000	4.730610	0.969920	0.394921	4.715621	0.983977	0.171380	4.684393	1.076646	0.435759	4.658444	1.083932	0.139344	4.644044	0.745474	0.424040	4.238382	0.438777	0.359843	4.037628	0.350217	0.355185	4.016706	0.356109	0.446973	4.684402	0.868905	0.109726	4.759486	0.801367	0.131525	4.741876	0.698535	0.118202	4.851367	0.045868	0.251592	5.036762	0.162675	0.270036	5.031996	0.143936	0.181103	4.732027	1.443533	0.265644	4.780041	1.228103	0.253137	4.717239	1.488509	0.445112	4.643284	1.481900	0.113001	4.625566	0.840107	0.462535	4.570270	0.675752	0.427874	4.862512	0.417994	0.240449	4.881294	0.347045	0.191606	4.623928	1.522167	0.285403	4.550999	1.065002	0.263604	4.563000	1.238912	0.314731	4.558602	1.059360	0.336304	4.883081	0.282696	0.248325	4.373256	0.480178	0.340018	4.064865	0.558211	0.381575	4.321143	0.447214	0.398592	4.498160	0.507148	0.271917	
576	2.3040	4.745508	0.967217	0.394686	4.729992	0.981870	0.170977	4.698702	1.073161	0.435883	4.672369	1.080799	0.139160	4.661471	0.741992	0.424711	4.259151	0.438991	0.361427	4.056284	0.357131	0.358052	4.035389	0.365075	0.449712	4.699839	0.867671	0.110580	4.775579	0.800951	0.132308	4.759072	0.697949	0.118565	4.856822	0.041687	0.250891	5.043786	0.155359	0.270737	5.039144	0.136858	0.181742	4.747549	1.439849	0.265192	4.794737	1.224201	0.253355	4.732062	1.485252	0.444322	4.659945	1.478130	0.111877	4.641724	0.836484	0.462599	4.588635	0.671421	0.428457	4.876176	0.413500	0.240655	4.893302	0.342175	0.191746	4.639570	1.518953	0.284374	4.565245	1.061073	0.263820	4.577789	1.235759	0.313593	4.572874	1.055366	0.336542	4.893580	0.277692	0.248353	4.393909	0.480438	0.341970	4.087253	0.564925	0.380985	4.341601	0.447677	0.400443	4.520686	0.501755	0.273412	
577	2.3080	4.760417	0.964348	0.394392	4.744346	0.979736	0.170491	4.713616	1.069391	0.436129	4.686211	1.077575	0.138890	4.678914	0.738475	0.425513	4.280934	0.439329	0.362977	4.075462	0.363594	0.360789	4.054908	0.373611	0.452320	4.715357	0.866264	0.111231	4.791660	0.800348	0.133151	4.776203	0.697174	0.119048	4.861250	0.037281	0.250217	5.050688	0.148071	0.271429	5.045726	0.129565	0.182109	4.763155	1.435973	0.264744	4.809419	1.220137	0.253585	4.746908	1.481800	0.443550	4.676669	1.474098	0.110724	4.657813	0.832770	0.462638	4.606838	0.666949	0.429147	4.889671	0.408806	0.240848	4.904925	0.337089	0.191876	4.655264	1.515566	0.283532	4.579341	1.056628	0.264065	4.592239	1.232777	0.312723	4.587100	1.051008	0.336786	4.903469	0.272576	0.248430	4.415572	0.480822	0.343888	4.110055	0.571405	0.380280	4.363071	0.448265	0.402259	4.542102	0.495881	0.274755	
578	2.3120	4.775330	0.961326	0.394066	4.758680	0.977516	0.169888	4.728652	1.065445	0.436266	4.699829	1.074290	0.138604	4.696283	0.734891	0.426411	4.302276	0.439334	0.364591	4.095853	0.370006	0.363605	4.075264	0.381676	0.454831	4.730954	0.864664	0.111691	4.807648	0.799538	0.134015	4.793133	0.696106	0.119972	4.865184	0.033178	0.249513	5.056693	0.139902	0.271660	5.051585	0.121968	0.182338	4.778702	1.431940	0.264329	4.824153	1.215911	0.253816	4.761637	1.478129	0.442854	4.693451	1.469985	0.109668	4.673731	0.829019	0.462672	4.625262	0.662491	0.429934	4.902827	0.403932	0.241023	4.916328	0.331899	0.192014	4.670846	1.511820	0.282288	4.593455	1.052134	0.264528	4.606986	1.229406	0.311652	4.601685	1.046578	0.337172	4.912956	0.267374	0.248513	4.436799	0.480872	0.345872	4.133342	0.577376	0.379665	4.384104	0.448519	0.404140	4.564343	0.490220	0.276748	
